<?xml version="1.0" encoding="utf-8"?>
<!-- Generator: Adobe Illustrator 22.0.1, SVG Export Plug-In . SVG Version: 6.00 Build 0)  -->
<svg version="1.1" id="Layer_1" xmlns="http://www.w3.org/2000/svg" xmlns:xlink="http://www.w3.org/1999/xlink" x="0px" y="0px"
	 viewBox="0 0 784.4 188.7" style="enable-background:new 0 0 784.4 188.7;" xml:space="preserve">
<style type="text/css">
	.st0{fill:#333333;}
</style>
<g id="B1meWH_1_">
	<g>
		<path class="st0" d="M472.2,97.5c0-2.9,0-5.3,0-8c6.7,0,12.9,0,19.5,0c0,1.9,0,3.5,0,5.1c0,19.5,0.1,39,0,58.5
			c0,3.8-0.4,7.6-1,11.4c-1.7,11-8.6,18-18.7,21.4c-11.3,3.8-22.9,3.9-34.2-0.6c-8.6-3.5-14.2-9.6-15.3-19.6
			c3.2-0.8,6.5-0.3,9.7-0.4c3.2-0.1,6.3,0,9.5,0c0.4,0.7,0.8,1.2,1.1,1.8c4.5,9.1,18.6,11.1,25.3,3.6c1.6-1.8,2.6-4.2,3.5-6.5
			c1.1-2.8,0.9-9.9,0.1-13.6c-2.3,1.8-4.5,4-7,5.4c-12.5,7-35.5,4.9-42.2-16.5c-3.3-10.8-3.6-21.6,0.5-32.3
			c6.5-17.2,23.7-23.3,38.6-17.8C465.2,90.6,466.8,91.8,472.2,97.5z M472.9,123.9c-0.2,0-0.3-0.1-0.5-0.1c-0.1-1.8-0.1-3.7-0.4-5.5
			c-0.6-4.1-1.8-8.1-4.8-11.3c-6.5-7-21.5-7.3-26,7.2c-1.9,6.2-1.6,12.5,0.3,18.7c2.1,6.9,7.2,11,13.6,11.3
			c6.8,0.3,12.6-3.2,15.3-9.8C471.7,131.1,472.1,127.4,472.9,123.9z"/>
		<path class="st0" d="M623.1,97.5c0-2.6,0-5.2,0-8c6.3,0,12.2,0,18.4,0c0.1,0.9,0.4,1.8,0.4,2.7c0,21.3,0.1,42.6,0,64
			c0,3.6-0.6,7.3-1.4,10.8c-1.7,7.2-6.1,12.3-12.3,16.2c-10.6,6.7-33,7-43.7,0.3c-6.6-4.1-10.9-9.5-11.6-17.7
			c3.3-1.1,6.6-0.4,9.9-0.6c3.2-0.1,6.3,0,9.6,0c1.4,3.8,3.2,7,7.2,8.4c4.5,1.6,9.1,2,13.7,0.5c4.8-1.7,7.4-5.4,8.7-10.2
			c1.4-4.7,0.9-9.5-0.1-15.1c-0.5,0.9-0.9,1.8-1.5,2.6c-4.5,5.3-10.6,7.3-17.2,7.8c-6.8,0.5-13.2-0.8-19.1-4.5
			c-4.4-2.8-7.7-6.6-9.6-11.2c-5.6-13.5-6.1-27.2,0.7-40.5c7.1-13.9,21.8-18.3,35.2-14.4c4.2,1.2,7.8,3.6,10.5,7.3
			c0.5,0.7,1,1.3,1.5,1.9C622.6,97.7,622.8,97.6,623.1,97.5z M623.1,124.8c-0.5-3.6-0.5-6.8-1.4-9.8c-1.6-5.4-4.4-10.1-10.3-11.8
			c-10.2-3-18.3,3.2-20.3,12.8c-1.1,5-0.7,9.9,0.2,14.8c1.3,7.3,7.1,12.9,13.6,13.4c7.7,0.6,14.1-3.8,16.6-11.5
			C622.2,130,622.6,127.2,623.1,124.8z"/>
		<path class="st0" d="M784.4,100.8c-6.2,3-12,5.8-18,8.7c-6.3-4.8-12.7-9.6-18.9-14.6c-3.1-2.5-6.3-3.6-10.4-3.8
			c-14.1-0.9-27.6-4.4-38.8-13.7c-7.9-6.6-13.1-15-17.1-24.2c-3.9-9.1-6-18.6-7.2-28.4c-0.4-3.6-0.5-3.7-4.1-4.5
			c-6.5-1.4-12.9-2.8-19.6-4.2c0.6-2.7,2.6-3.3,4.5-3.6c5.2-0.8,10.5-1.7,15.8-2c3.2-0.2,5.5-0.9,7.6-3.7c7.2-9.8,21.2-8,26.9,0.5
			c10.2,15,20.5,29.9,30.6,45c5.5,8.1,10.8,16.4,16,24.7c1.4,2.2,3,3.9,5.1,5.3c8,5.3,16.1,10.7,24.1,16.1
			C781.9,98.9,782.9,99.7,784.4,100.8z M716.5,32.1c-4.9,2.6-8.5,5.9-11.6,9.9c-5,6.5-5.1,13-0.4,19.8c5.4,7.7,13.1,9.8,21.9,8.2
			c3.8-0.7,7.8-1.4,11-4.4c-5.3-8.6-10.6-17-15.8-25.5C719.9,37.5,718.3,35,716.5,32.1z M694.1,13.2c0.1-1.9-1.1-3.1-3-3.2
			c-1.9-0.1-3.2,1.2-3.2,3c0,1.8,1.2,3.2,3,3.2C692.7,16.3,694.1,15,694.1,13.2z"/>
		<path class="st0" d="M517.4,111.8c-6.5,0-12.6,0-19.1,0c-0.8-5.2,1.2-9.5,4.1-13.4c2.9-3.8,6.7-6.6,11.2-8.1
			c12.2-4.1,24.5-4.2,36.7-0.2c6.9,2.2,13.1,7.7,12.9,18c-0.2,9.2,0,18.3,0,27.5c0,8.4-0.4,16.9,2,25.4c-6.8,0-13.2,0-19.7,0
			c-0.6-1.9-1.1-3.6-1.8-5.7c-1.2,0.9-2.3,1.9-3.5,2.6c-10.4,5.9-21.4,7.1-32.6,2.9c-7-2.6-10.7-8-11.7-15.5
			c-0.4-3.2-0.3-6.3,0.3-9.4c1.1-5.3,4-9.4,8.9-12c5.5-2.9,11.6-4,17.7-4.8c4.3-0.6,8.5-1.2,12.8-1.9c0.7-0.1,1.3-0.2,2-0.4
			c4.1-1.3,5.6-3.1,5.6-6.6c0.1-4.4-1.5-7.4-5.4-8.6c-4.3-1.3-8.8-1.4-13.2,0c-2.9,0.9-4.9,2.8-5.8,5.7
			C518.3,108.9,517.9,110.1,517.4,111.8z M543.1,127.6c-5.3,1-10.1,1.8-14.8,2.6c-3.6,0.7-7.2,1.2-10,3.9c-3,2.8-3,6.2-2.2,9.7
			c0.8,3.2,3.4,4.8,6.5,5.4c2.9,0.5,5.8,0.8,8.9,0.3c5.5-0.9,9-3.9,10.7-9.1C543.7,136.2,543,132,543.1,127.6z"/>
		<path class="st0" d="M115.4,63.4c3.4,0,6.3,0,9.7,0c-9.1,33.1-18.1,65.8-27.1,98.7c-3.4,0-6.7,0-10.4,0c-8.2-29-16.5-58.2-25-88.5
			c-8.5,30.2-16.7,59.3-24.9,88.6c-3.4,0-6.6,0-10,0c-1.1-1-1.3-2.7-1.8-4.3C20,136.5,14,115.1,8.1,93.7c-2.6-9.3-5.2-18.6-7.7-27.8
			c-0.2-0.6-0.2-1.3-0.4-2.1c3.1-1.1,6.3-0.3,9.9-0.6c4.2,14.1,7.5,28.5,11.2,42.7c3.8,14.3,7.4,28.6,11.4,43.9
			c8.2-29.4,16-57.7,24-86.3c4,0,7.9,0,12.3,0c7.9,28.1,15.8,56.4,23.9,85.6c2.8-7.7,4.2-14.8,6.1-21.8c2-7,3.6-14.2,5.4-21.2
			s3.7-14.1,5.6-21.2C111.6,77.8,113.4,70.7,115.4,63.4z"/>
		<path class="st0" d="M719.8,130.3c-17.3,0-34.2,0-51.1,0c-0.5,8.3,3.1,14.8,9.2,16.8c8.1,2.6,17.2,1.8,23.3-7.6c5.4,0,11,0,17.1,0
			c-2.4,8.3-6.5,15-13.8,19c-13.3,7.1-26.8,6.9-40-0.4c-8.5-4.7-13-12.7-15.2-21.9c-2-8.6-1.5-17.1,1.5-25.5
			c4.3-12.2,16.5-22.6,32.5-23.1c10.3-0.3,19.3,2.6,26.5,10.3c4.8,5.1,7.5,11.3,9,18C719.9,120.2,720.4,124.8,719.8,130.3z
			 M699.7,117.2c-2.5-12.3-8.5-14.9-16.2-14.7c-9.3,0.3-15.2,7.1-14.9,14.7C678.9,117.2,689.1,117.2,699.7,117.2z"/>
		<path class="st0" d="M412.8,161.1c-6.3,0-12.6,0-19.3,0c-0.1-1.2-0.3-2.5-0.3-3.7c0-12.3,0.1-24.7-0.1-37c0-3.3-0.5-6.6-1.2-9.8
			c-1.1-4.6-4.6-6.9-9.1-7.2c-10.7-0.7-15.1,3.8-16.6,13.6c-0.3,2-0.2,4-0.2,6c0,11,0,22,0,33c0,1.6,0,3.3,0,5.3
			c-6.7,0.5-13.1,0.1-19.8,0.3c0-24.2,0-47.9,0-71.9c6.2,0,12.3,0,18.8,0c0,2.9,0,5.7,0,9.5c4.6-6.7,10.2-10,17.1-11.2
			c6.2-1.1,12.3-0.6,18.1,1.8c5.1,2.1,8.9,6,10.6,11.3c1.1,3.4,2.1,7.1,2.1,10.7c0.3,16,0.2,32,0.2,48
			C413.1,160,412.9,160.5,412.8,161.1z"/>
		<path class="st0" d="M197.7,151.7c0,3.4,0,6.9,0,10.5c-3.1,0-5.6,0-8.4,0c0-33,0-65.7,0-98.7c2.8,0,5.5,0,8.7,0
			c0,13.2,0,26.2,0,40.4c6.3-12.1,16-16.1,27.9-15.3c11.8,0.8,20.6,6.7,25.3,17.5c5.9,13.4,5.9,27.3,0.1,40.7
			c-5.1,11.6-14.3,17.4-27.1,17.7C213.3,164.5,204.6,160.8,197.7,151.7z M246.2,124.8c0.1-6.5-1.5-14.4-6.8-21.1
			c-3-3.8-6.8-6.5-11.6-7.3c-12.8-2-22.8,3.4-27,15.1c-3.2,8.9-3.3,17.8-1,26.9c2.4,9.5,11.2,18.2,21.6,18.3
			c7.9,0.1,14.3-2.3,18.9-8.8C244.8,141.5,246.2,134.3,246.2,124.8z"/>
		<path class="st0" d="M183,129.1c-18.3,0-36.2,0-54,0c-1.7,2.6-0.1,4.8,0.1,7c0.7,5.2,3,9.8,6.5,13.8c8.1,9.3,23.9,8.6,30.7,2.1
			c2.4-2.3,4.1-5.6,5.9-8.5c0.9-1.4,1.3-3,2-4.8c2.7,0,5.5,0,8.3,0c-2.5,16.8-14.4,25.5-28.1,25.6c-6,0.1-11.9-0.2-17.5-2.9
			c-6.4-3.1-11.1-8-13.7-14.5c-5.2-13-5.5-26.1-0.3-39.3c5.5-14,19.1-21.2,34.2-18.8c11.2,1.8,18.5,8.5,22.7,18.7
			C182.5,114.1,183.6,121.2,183,129.1z M174,121c0.2-5.3-1.5-9.9-4-14.2c-7.8-13.6-26.7-14.4-35.8-1.6c-3.3,4.7-4.9,10-5.8,15.9
			C143.6,121,158.6,121,174,121z"/>
		<path class="st0" d="M301.9,129.1c-2.2-1.1-1.6-2.9-1.7-4.5c-0.1-1.6,0-3.2,0-5.2c-12,0-23.7,0-35.4,0c-1.2-3.1-0.5-6.1-0.6-9
			c-0.1-2.8,0-5.6,0-8.7c4.1-1,8-0.4,11.9-0.5c3.8-0.1,7.7,0,11.5,0c4,0,7.9,0,12.1,0c0.9-2.5,0.3-4.8,0.5-7.1
			c0.3-2.8,1.6-3.6,3.9-1.9c4.4,3.2,8.8,6.6,13.2,9.9c2.7,2,5.4,3.9,8,6c2.3,2,2.4,3.6,0,5.3c-7.2,5.1-14.4,10.1-21.7,15.1
			C303,128.8,302.3,128.9,301.9,129.1z"/>
		<path class="st0" d="M286.4,73.2c-1.5,2.5,0.6,5.8-2.7,7.8c-6.7-4.5-13.7-8.8-20.3-14.6c6.7-6.3,13.8-11,20.6-16
			c2.8,2.3,1.1,5.3,2.3,8c1.4,0.1,2.8,0.2,4.3,0.2c13.2,0,26.3,0,39.5,0c1.3,0,2.7-0.1,4,0.1c4.2,0.5,6.9,3.3,6.9,7.1
			c0,3.8-2.7,6.6-6.9,7.2c-1.3,0.2-2.7,0.1-4,0.1c-13,0-26,0-39,0C289.4,73,287.8,73.1,286.4,73.2z"/>
		<path class="st0" d="M286.2,160.1c-0.4,2.9-0.8,5.3-1.1,7.8c-3.9-0.9-15.6-8.7-21.1-14c0.5-0.8,0.9-2,1.7-2.7
			c5.7-4.4,11.4-8.6,17.2-12.9c0.4-0.3,0.9-0.2,1.5-0.3c2.7,2,0.7,5.1,2,7.8c1.2,0.1,2.6,0.2,4.1,0.2c14.2,0,28.3,0,42.5,0
			c2.4,0,4.6,0.1,6.3,2.3c3.5,4.4,1.3,10.5-4.2,11.6c-1.3,0.3-2.7,0.1-4,0.1c-13.3,0-26.7,0-40,0
			C289.4,160.1,287.8,160.1,286.2,160.1z"/>
		<path class="st0" d="M746.3,62.6c-7.4-11.4-14.7-22.6-22.1-33.9c4.9-4.1,10.4-6.4,16.4-7.2c8.2-1.2,15.6,4.3,18.3,13
			c1.4,4.7,1.1,9.2-0.8,13.6C755.6,53.9,751.9,58.6,746.3,62.6z"/>
	</g>
</g>
</svg>
